<svg xmlns="http://www.w3.org/2000/svg" viewBox="0 0 821 821" width="821" height="821">
  <rect width="821" height="821" fill="#f5eed0"/>
  <path d="M 419.4,65.4 Q 416.6,65.6 415.2,65.7 Q 411.0,66.1 409.6,66.2 Q 405.6,66.7 404.3,66.9 Q 400.4,67.5 399.1,67.8 Q 395.4,68.5 394.2,68.8 Q 390.6,69.6 389.4,69.9 Q 386.0,70.9 384.9,71.2 Q 381.6,72.3 380.6,72.7 Q 377.5,73.9 376.4,74.3 Q 373.0,75.7 371.9,76.3 Q 368.2,77.9 366.9,78.4 Q 363.0,80.3 361.6,80.9 Q 357.3,82.9 355.8,83.7 Q 351.3,85.9 349.7,86.7 Q 344.8,89.1 343.1,90.0 Q 337.9,92.7 336.1,93.6 Q 330.7,96.5 328.8,97.4 Q 323.0,100.2 321.0,101.0 Q 314.9,103.6 312.7,104.5 Q 306.3,106.9 304.1,107.6 Q 297.4,109.9 295.0,110.6 Q 288.0,112.6 285.6,113.3 Q 278.2,115.1 275.7,115.7 Q 268.0,117.4 265.3,118.0 Q 257.3,119.5 254.7,120.0 Q 247.2,121.5 244.9,121.9 Q 238.0,123.4 235.9,123.9 Q 229.7,125.3 227.7,125.7 Q 222.2,127.1 220.5,127.5 Q 215.6,128.9 214.1,129.3 Q 209.9,130.6 208.6,131.0 Q 205.0,132.3 204.0,132.7 Q 201.1,133.9 200.2,134.3 Q 197.5,135.5 196.7,135.9 Q 194.2,137.0 193.5,137.4 Q 191.2,138.5 190.5,138.9 Q 188.5,140.0 187.8,140.3 Q 186.0,141.4 185.4,141.7 Q 183.7,142.7 183.2,143.1 Q 181.8,144.1 181.3,144.4 Q 180.1,145.3 179.7,145.6 Q 178.4,146.7 178.0,147.0 Q 176.7,148.1 176.2,148.5 Q 174.9,149.7 174.4,150.1 Q 173.0,151.4 172.6,151.9 Q 171.1,153.3 170.6,153.8 Q 169.1,155.2 168.6,155.8 Q 167.1,157.3 166.6,157.9 Q 165.0,159.6 164.4,160.1 Q 162.9,161.8 162.4,162.4 Q 160.9,164.1 160.4,164.7 Q 159.0,166.4 158.5,167.0 Q 157.2,168.7 156.7,169.3 Q 155.4,171.0 155.0,171.6 Q 153.7,173.4 153.3,174.0 Q 152.1,175.7 151.8,176.3 Q 150.6,178.1 150.3,178.7 Q 149.1,180.6 148.8,181.2 Q 147.7,183.2 147.3,183.9 Q 146.2,186.0 145.8,186.7 Q 144.8,188.9 144.4,189.6 Q 143.3,191.9 143.0,192.7 Q 141.9,195.1 141.6,195.9 Q 140.5,198.4 140.2,199.3 Q 139.2,201.9 138.8,202.8 Q 137.8,205.5 137.5,206.4 Q 136.5,209.2 136.2,210.2 Q 135.3,213.1 135.0,214.1 Q 134.1,217.1 133.8,218.2 Q 132.9,221.3 132.6,222.4 Q 131.8,225.6 131.6,226.7 Q 130.8,230.1 130.5,231.2 Q 129.8,234.7 129.5,235.8 Q 128.8,239.1 128.5,240.2 Q 127.8,243.3 127.5,244.3 Q 126.8,247.2 126.5,248.2 Q 125.8,250.9 125.5,251.8 Q 124.8,254.3 124.5,255.2 Q 123.8,257.5 123.5,258.3 Q 122.8,260.5 122.5,261.2 Q 121.8,263.2 121.4,263.9 Q 120.2,266.5 119.7,267.5 Q 118.0,270.8 117.3,272.1 Q 115.0,276.1 114.1,277.6 Q 111.3,282.4 110.2,284.1 Q 106.9,289.6 105.6,291.6 Q 101.7,297.8 100.3,300.0 Q 95.9,307.0 94.3,309.4 Q 89.3,317.1 87.7,319.6 Q 83.1,326.9 81.6,329.2 Q 77.5,335.9 76.2,338.0 Q 72.6,344.2 71.5,346.1 Q 68.4,351.7 67.4,353.4 Q 64.8,358.4 64.0,360.0 Q 61.9,364.4 61.3,365.8 Q 59.7,369.6 59.3,370.8 Q 58.2,374.1 57.8,375.1 Q 56.9,378.3 56.6,379.4 Q 55.8,382.6 55.6,383.7 Q 54.9,386.9 54.7,388.0 Q 54.2,391.2 54.1,392.3 Q 53.6,395.5 53.5,396.6 Q 53.3,399.9 53.2,401.0 Q 53.0,404.2 53.0,405.3 Q 53.0,408.6 53.0,409.7 Q 53.1,412.8 53.1,413.8 Q 53.2,416.8 53.2,417.8 Q 53.4,420.6 53.5,421.5 Q 53.7,424.1 53.8,425.0 Q 54.1,427.5 54.2,428.3 Q 54.5,430.6 54.7,431.3 Q 55.1,433.5 55.2,434.2 Q 55.7,436.2 55.8,436.8 Q 56.4,438.8 56.5,439.5 Q 57.1,441.6 57.4,442.3 Q 58.0,444.4 58.3,445.2 Q 59.0,447.4 59.3,448.1 Q 60.1,450.4 60.4,451.1 Q 61.2,453.4 61.5,454.2 Q 62.5,456.6 62.8,457.4 Q 63.8,459.8 64.2,460.7 Q 65.5,463.5 66.0,464.5 Q 67.6,467.8 68.2,469.0 Q 70.1,472.7 70.8,474.0 Q 73.0,478.2 73.8,479.6 Q 76.3,484.2 77.2,485.9 Q 80.0,490.9 81.0,492.7 Q 84.1,498.1 85.2,500.1 Q 88.7,506.0 89.8,507.9 Q 92.9,513.5 93.9,515.2 Q 96.7,520.3 97.6,521.9 Q 100.1,526.4 100.8,527.8 Q 102.9,531.8 103.6,533.0 Q 105.3,536.5 105.8,537.6 Q 107.3,540.6 107.7,541.5 Q 108.7,544.0 109.0,544.7 Q 109.7,546.6 109.9,547.3 Q 110.7,549.7 110.9,550.6 Q 111.7,553.4 112.0,554.5 Q 112.8,557.9 113.1,559.2 Q 114.1,563.1 114.4,564.5 Q 115.4,569.0 115.7,570.6 Q 116.8,575.6 117.2,577.4 Q 118.3,583.0 118.7,585.0 Q 119.9,591.1 120.3,593.0 Q 121.5,598.8 121.9,600.6 Q 123.0,605.8 123.4,607.4 Q 124.5,612.1 124.8,613.6 Q 125.8,617.7 126.2,619.0 Q 127.2,622.6 127.5,623.7 Q 128.4,626.9 128.7,627.8 Q 129.6,630.4 129.9,631.1 Q 130.8,633.2 131.1,633.8 Q 131.9,635.7 132.2,636.4 Q 133.1,638.3 133.5,638.9 Q 134.4,640.8 134.7,641.4 Q 135.7,643.2 136.0,643.8 Q 137.1,645.6 137.4,646.2 Q 138.4,648.0 138.8,648.6 Q 139.9,650.3 140.3,650.9 Q 141.4,652.6 141.8,653.1 Q 143.0,654.8 143.4,655.4 Q 144.6,657.1 145.1,657.7 Q 146.4,659.4 146.9,660.0 Q 148.4,661.7 148.9,662.3 Q 150.4,664.0 150.9,664.6 Q 152.5,666.4 153.1,667.0 Q 154.7,668.7 155.3,669.3 Q 157.1,671.1 157.7,671.7 Q 159.4,673.4 160.0,673.9 Q 161.6,675.5 162.2,675.9 Q 163.8,677.4 164.3,677.9 Q 165.9,679.2 166.4,679.6 Q 167.9,680.8 168.4,681.2 Q 169.8,682.3 170.3,682.6 Q 171.7,683.6 172.1,683.9 Q 173.4,684.8 173.9,685.1 Q 175.4,685.9 175.9,686.2 Q 177.6,687.1 178.2,687.5 Q 180.0,688.4 180.7,688.7 Q 182.7,689.7 183.4,690.0 Q 185.6,691.1 186.4,691.4 Q 188.8,692.4 189.7,692.8 Q 192.2,693.9 193.2,694.3 Q 195.9,695.4 196.9,695.8 Q 200.1,696.9 201.2,697.4 Q 204.8,698.6 206.1,699.0 Q 210.1,700.4 211.5,700.8 Q 215.9,702.2 217.4,702.7 Q 222.2,704.2 223.9,704.7 Q 229.1,706.2 230.9,706.7 Q 236.5,708.3 238.5,708.9 Q 244.5,710.6 246.6,711.2 Q 252.8,713.2 254.9,714.0 Q 261.3,716.4 263.5,717.3 Q 270.1,720.1 272.3,721.1 Q 279.0,724.3 281.3,725.5 Q 288.2,729.1 290.5,730.4 Q 297.5,734.4 299.9,735.8 Q 307.1,740.3 309.6,741.8 Q 317.0,746.6 319.4,748.2 Q 326.4,752.6 328.6,754.0 Q 335.2,757.9 337.2,759.2 Q 343.3,762.6 345.2,763.6 Q 350.8,766.6 352.6,767.4 Q 357.8,769.9 359.4,770.6 Q 364.0,772.5 365.5,773.1 Q 369.7,774.5 371.0,774.9 Q 374.7,775.8 375.9,776.0 Q 379.5,776.8 380.6,777.0 Q 384.0,777.6 385.2,777.8 Q 388.4,778.3 389.5,778.5 Q 392.7,778.9 393.7,779.0 Q 396.7,779.3 397.7,779.3 Q 400.6,779.5 401.6,779.5 Q 404.3,779.6 405.2,779.5 Q 407.9,779.5 408.7,779.4 Q 411.3,779.3 412.1,779.2 Q 414.5,779.1 415.3,779.0 Q 417.6,778.8 418.4,778.7 Q 420.6,778.4 421.3,778.3 Q 423.4,778.0 424.1,777.9 Q 426.1,777.5 426.8,777.4 Q 428.7,777.0 429.3,776.8 Q 431.1,776.3 431.8,776.1 Q 434.2,775.3 435.1,774.9 Q 438.2,773.6 439.4,773.1 Q 443.2,771.4 444.7,770.8 Q 449.2,768.6 450.8,767.8 Q 456.1,765.3 458.0,764.3 Q 463.9,761.3 466.1,760.2 Q 472.7,756.8 475.1,755.6 Q 482.5,751.7 485.0,750.4 Q 492.7,746.7 495.2,745.5 Q 503.0,742.1 505.6,741.0 Q 513.6,737.9 516.2,736.9 Q 524.3,734.1 527.1,733.2 Q 535.3,730.6 538.1,729.8 Q 546.5,727.5 549.3,726.8 Q 557.8,724.8 560.7,724.2 Q 569.4,722.4 572.2,721.9 Q 580.2,720.3 582.7,719.8 Q 589.9,718.2 592.1,717.8 Q 598.5,716.3 600.4,715.9 Q 605.9,714.6 607.6,714.1 Q 612.3,712.9 613.7,712.5 Q 617.5,711.4 618.6,711.0 Q 621.7,710.0 622.5,709.6 Q 624.7,708.7 625.4,708.4 Q 627.4,707.4 628.1,707.1 Q 630.1,706.0 630.7,705.7 Q 632.7,704.6 633.3,704.2 Q 635.3,703.1 635.9,702.7 Q 637.8,701.6 638.4,701.2 Q 640.3,700.0 640.9,699.6 Q 642.7,698.3 643.3,697.9 Q 645.1,696.6 645.7,696.1 Q 647.5,694.6 648.2,694.0 Q 650.0,692.3 650.7,691.6 Q 652.6,689.7 653.3,689.0 Q 655.3,686.8 656.0,686.0 Q 658.0,683.5 658.7,682.6 Q 660.9,680.0 661.6,679.0 Q 663.8,676.1 664.5,675.1 Q 666.8,671.9 667.5,670.8 Q 669.9,667.0 670.7,665.6 Q 673.1,661.2 673.9,659.5 Q 676.5,654.4 677.4,652.6 Q 680.0,646.8 680.9,644.7 Q 683.7,638.2 684.6,635.9 Q 687.5,628.8 688.5,626.2 Q 691.4,618.4 692.5,615.6 Q 695.5,607.1 696.6,604.3 Q 699.8,595.8 701.0,593.0 Q 704.4,584.7 705.6,581.9 Q 709.2,573.8 710.5,571.1 Q 714.3,563.1 715.6,560.5 Q 719.6,552.6 721.0,550.1 Q 725.2,542.4 726.6,539.9 Q 731.0,532.4 732.5,529.9 Q 737.0,522.6 738.5,520.2 Q 742.7,513.3 744.0,511.0 Q 747.8,504.5 748.9,502.5 Q 752.2,496.4 753.2,494.5 Q 756.0,488.9 756.9,487.1 Q 759.3,482.0 760.0,480.4 Q 761.9,475.6 762.4,474.2 Q 763.9,469.9 764.3,468.6 Q 765.3,464.8 765.6,463.5 Q 766.4,460.0 766.7,458.9 Q 767.4,455.6 767.6,454.6 Q 768.2,451.6 768.4,450.7 Q 768.9,448.0 769.0,447.1 Q 769.4,444.7 769.5,443.9 Q 769.8,441.8 769.8,441.1 Q 770.0,439.2 770.0,438.6 Q 770.0,437.0 770.0,436.4 Q 769.9,434.8 769.9,434.2 Q 769.8,432.4 769.8,431.8 Q 769.6,429.9 769.5,429.3 Q 769.3,427.3 769.2,426.7 Q 768.9,424.6 768.8,423.9 Q 768.5,421.8 768.3,421.0 Q 767.9,418.8 767.8,418.0 Q 767.3,415.7 767.1,414.8 Q 766.2,411.8 765.8,410.7 Q 764.5,407.0 763.9,405.6 Q 762.0,401.1 761.3,399.4 Q 758.9,394.2 758.0,392.3 Q 755.2,386.3 754.1,384.2 Q 750.8,377.5 749.6,375.1 Q 745.7,367.6 744.4,364.9 Q 740.0,356.7 738.6,354.0 Q 734.6,346.2 733.4,343.8 Q 729.8,336.6 728.7,334.3 Q 725.6,327.8 724.7,325.7 Q 722.0,319.8 721.2,318.0 Q 719.0,312.7 718.4,311.1 Q 716.7,306.4 716.2,305.0 Q 714.9,301.0 714.6,299.8 Q 713.8,296.4 713.5,295.3 Q 712.8,292.1 712.6,291.1 Q 712.0,288.0 711.8,287.0 Q 711.2,284.0 711.1,283.0 Q 710.6,280.2 710.4,279.2 Q 710.0,276.5 709.9,275.6 Q 709.6,272.9 709.5,272.0 Q 709.2,269.5 709.1,268.6 Q 708.9,266.2 708.9,265.4 Q 708.6,262.9 708.5,262.1 Q 708.2,259.5 708.1,258.7 Q 707.7,256.1 707.6,255.2 Q 707.1,252.6 706.9,251.7 Q 706.4,249.1 706.2,248.2 Q 705.6,245.5 705.4,244.6 Q 704.7,241.8 704.5,240.9 Q 703.8,238.1 703.5,237.1 Q 702.7,234.4 702.5,233.5 Q 701.7,230.9 701.4,230.1 Q 700.6,227.6 700.3,226.7 Q 699.5,224.3 699.2,223.5 Q 698.3,221.2 698.0,220.5 Q 697.1,218.3 696.8,217.6 Q 695.9,215.5 695.6,214.8 Q 694.7,212.8 694.4,212.2 Q 693.4,210.2 693.1,209.6 Q 692.0,207.7 691.7,207.0 Q 690.6,205.1 690.2,204.5 Q 689.1,202.6 688.7,202.0 Q 687.6,200.1 687.2,199.5 Q 686.0,197.7 685.6,197.1 Q 684.3,195.3 683.9,194.7 Q 682.6,192.9 682.1,192.3 Q 680.7,190.6 680.3,190.0 Q 678.8,188.2 678.3,187.7 Q 676.8,185.9 676.3,185.4 Q 674.7,183.7 674.2,183.1 Q 672.5,181.5 672.0,180.9 Q 670.2,179.3 669.6,178.7 Q 667.9,177.1 667.2,176.6 Q 665.4,175.0 664.8,174.5 Q 662.9,172.9 662.3,172.5 Q 660.5,171.0 659.9,170.6 Q 658.1,169.2 657.5,168.8 Q 655.8,167.6 655.2,167.2 Q 653.5,166.1 653.0,165.7 Q 651.3,164.7 650.7,164.3 Q 649.1,163.4 648.6,163.1 Q 647.0,162.2 646.4,161.9 Q 644.3,161.0 643.6,160.6 Q 641.0,159.5 640.1,159.1 Q 637.1,157.9 635.9,157.4 Q 632.4,156.0 631.1,155.5 Q 627.1,154.0 625.7,153.5 Q 621.1,151.8 619.5,151.2 Q 614.5,149.4 612.7,148.8 Q 607.1,146.8 605.3,146.2 Q 599.9,144.3 598.2,143.6 Q 593.1,141.7 591.4,141.1 Q 586.6,139.2 585.0,138.6 Q 580.5,136.8 579.0,136.2 Q 574.8,134.4 573.4,133.8 Q 569.4,132.0 568.2,131.4 Q 564.5,129.7 563.3,129.1 Q 559.9,127.4 558.7,126.8 Q 555.1,124.9 553.9,124.2 Q 550.1,122.0 548.7,121.3 Q 544.7,118.8 543.2,117.9 Q 538.9,115.2 537.4,114.2 Q 532.9,111.2 531.3,110.2 Q 526.5,106.9 524.8,105.8 Q 519.8,102.3 518.0,101.0 Q 512.7,97.2 511.0,96.0 Q 506.0,92.5 504.4,91.4 Q 499.8,88.2 498.4,87.2 Q 494.2,84.5 492.9,83.6 Q 489.1,81.2 488.0,80.5 Q 484.6,78.5 483.6,77.9 Q 480.6,76.2 479.7,75.8 Q 477.2,74.5 476.4,74.1 Q 474.3,73.2 473.6,72.9 Q 471.6,72.1 470.9,71.9 Q 468.8,71.1 468.1,70.9 Q 466.0,70.2 465.3,69.9 Q 463.2,69.3 462.5,69.1 Q 460.3,68.5 459.6,68.3 Q 457.5,67.7 456.8,67.5 Q 454.7,67.0 453.9,66.8 Q 451.8,66.3 451.0,66.2 Q 448.6,65.8 447.8,65.7 Q 445.1,65.4 444.2,65.3 Q 441.3,65.1 440.2,65.1 Q 437.0,65.0 435.9,65.0 Q 432.5,64.9 431.3,65.0 Q 427.5,65.0 426.2,65.1 Q 422.2,65.2 419.4,65.4 Z" fill="#512807"/>
  <path d="M 412.7,83.4 Q 411.3,83.6 410.6,83.7 Q 408.6,84.0 407.9,84.1 Q 405.9,84.5 405.2,84.6 Q 403.2,85.0 402.6,85.2 Q 400.6,85.7 399.9,85.8 Q 398.0,86.3 397.3,86.5 Q 395.4,87.1 394.8,87.3 Q 392.9,87.9 392.3,88.1 Q 390.4,88.7 389.7,89.0 Q 387.5,89.9 386.6,90.2 Q 384.0,91.4 383.0,91.8 Q 379.9,93.2 378.8,93.8 Q 375.3,95.5 374.1,96.1 Q 370.1,98.0 368.7,98.7 Q 364.4,101.0 362.9,101.8 Q 358.1,104.3 356.4,105.2 Q 351.2,107.9 349.6,108.8 Q 344.6,111.4 343.1,112.3 Q 338.5,114.6 337.1,115.3 Q 332.9,117.5 331.6,118.1 Q 327.8,120.0 326.6,120.6 Q 323.1,122.2 322.1,122.7 Q 319.0,124.0 318.1,124.4 Q 315.4,125.6 314.6,125.9 Q 312.2,126.8 311.4,127.1 Q 308.5,128.0 307.4,128.3 Q 303.9,129.3 302.5,129.7 Q 298.2,130.7 296.7,131.1 Q 291.7,132.3 289.8,132.7 Q 284.1,133.9 282.1,134.3 Q 275.7,135.7 273.4,136.1 Q 266.2,137.5 263.7,138.0 Q 255.8,139.5 253.3,140.0 Q 245.9,141.5 243.6,141.9 Q 237.0,143.3 234.9,143.8 Q 229.0,145.2 227.2,145.6 Q 221.9,146.9 220.3,147.4 Q 215.8,148.6 214.5,149.1 Q 210.7,150.3 209.6,150.7 Q 206.5,151.9 205.6,152.2 Q 203.2,153.4 202.5,153.7 Q 200.4,154.8 199.7,155.2 Q 197.8,156.3 197.1,156.6 Q 195.3,157.6 194.7,158.0 Q 193.1,159.0 192.6,159.3 Q 191.0,160.2 190.6,160.5 Q 189.2,161.5 188.8,161.8 Q 187.6,162.6 187.2,162.9 Q 186.2,163.8 185.8,164.1 Q 184.7,165.1 184.3,165.5 Q 183.1,166.8 182.6,167.2 Q 181.3,168.7 180.8,169.3 Q 179.4,171.0 178.9,171.6 Q 177.3,173.5 176.8,174.2 Q 175.2,176.3 174.6,177.1 Q 172.8,179.4 172.2,180.3 Q 170.4,182.9 169.7,183.9 Q 167.8,187.0 167.1,188.2 Q 165.1,192.1 164.5,193.5 Q 162.4,198.0 161.7,199.6 Q 159.5,204.8 158.8,206.6 Q 156.6,212.4 155.8,214.5 Q 153.5,220.9 152.8,223.2 Q 150.4,230.3 149.6,232.9 Q 147.2,240.6 146.4,243.1 Q 144.1,250.4 143.4,252.7 Q 141.2,259.3 140.5,261.3 Q 138.5,267.2 137.9,269.0 Q 136.0,274.2 135.4,275.8 Q 133.7,280.2 133.2,281.6 Q 131.6,285.3 131.2,286.4 Q 129.8,289.5 129.3,290.4 Q 128.1,292.8 127.6,293.6 Q 126.2,296.1 125.6,297.0 Q 123.8,300.0 123.2,301.0 Q 121.1,304.3 120.3,305.5 Q 117.9,309.1 117.1,310.4 Q 114.4,314.4 113.4,315.8 Q 110.4,320.2 109.4,321.7 Q 106.1,326.5 104.9,328.1 Q 101.3,333.2 100.1,334.9 Q 96.7,339.9 95.7,341.5 Q 92.6,346.3 91.6,347.9 Q 88.9,352.4 88.0,353.9 Q 85.6,358.3 84.8,359.7 Q 82.7,363.9 82.1,365.3 Q 80.3,369.3 79.7,370.6 Q 78.2,374.4 77.8,375.6 Q 76.6,379.2 76.3,380.3 Q 75.3,383.7 75.0,384.8 Q 74.1,387.9 73.8,388.8 Q 73.1,391.7 72.9,392.6 Q 72.3,395.2 72.1,396.1 Q 71.7,398.4 71.6,399.2 Q 71.3,401.3 71.2,401.9 Q 71.0,403.8 71.0,404.4 Q 71.0,406.0 71.0,406.6 Q 71.1,408.3 71.1,408.9 Q 71.3,410.8 71.3,411.4 Q 71.6,413.5 71.7,414.2 Q 72.0,416.4 72.1,417.1 Q 72.5,419.4 72.7,420.3 Q 73.1,422.7 73.3,423.6 Q 73.9,426.2 74.1,427.2 Q 74.7,429.9 75.0,431.0 Q 76.0,434.3 76.5,435.5 Q 77.9,439.4 78.5,440.8 Q 80.4,445.3 81.1,446.9 Q 83.4,452.0 84.3,453.8 Q 87.0,459.4 88.1,461.4 Q 91.2,467.7 92.4,469.9 Q 96.0,476.7 97.3,479.1 Q 101.4,486.5 102.7,488.9 Q 106.5,496.0 107.7,498.2 Q 111.1,504.7 112.1,506.8 Q 115.2,512.7 116.1,514.6 Q 118.7,520.0 119.5,521.7 Q 121.8,526.6 122.5,528.1 Q 124.3,532.5 124.9,533.8 Q 126.3,537.6 126.7,538.8 Q 127.8,542.1 128.2,543.2 Q 129.2,546.5 129.5,547.7 Q 130.6,551.3 130.9,552.6 Q 131.9,556.4 132.2,557.7 Q 133.2,561.7 133.5,563.1 Q 134.5,567.4 134.8,568.9 Q 135.8,573.4 136.1,574.9 Q 137.1,579.6 137.4,581.2 Q 138.3,586.2 138.6,587.8 Q 139.6,592.5 139.9,594.0 Q 140.9,598.4 141.2,599.7 Q 142.1,603.8 142.5,605.1 Q 143.5,608.9 143.8,610.0 Q 144.8,613.5 145.1,614.6 Q 146.1,617.7 146.5,618.7 Q 147.5,621.5 147.8,622.3 Q 148.8,624.8 149.2,625.6 Q 150.2,627.9 150.5,628.7 Q 151.6,630.8 151.9,631.5 Q 152.9,633.6 153.2,634.2 Q 154.2,636.1 154.5,636.7 Q 155.5,638.5 155.8,639.0 Q 156.8,640.7 157.1,641.2 Q 158.1,642.6 158.4,643.1 Q 159.3,644.4 159.6,644.9 Q 160.7,646.2 161.0,646.6 Q 162.1,648.0 162.5,648.4 Q 163.7,649.8 164.1,650.2 Q 165.4,651.6 165.9,652.0 Q 167.3,653.4 167.8,653.9 Q 169.2,655.2 169.8,655.7 Q 171.3,657.1 171.9,657.6 Q 173.6,659.0 174.1,659.4 Q 175.8,660.8 176.4,661.2 Q 178.1,662.5 178.7,662.9 Q 180.4,664.2 181.0,664.6 Q 182.7,665.8 183.3,666.1 Q 185.0,667.3 185.6,667.6 Q 187.4,668.7 188.0,669.0 Q 189.7,670.0 190.3,670.4 Q 192.1,671.3 192.8,671.7 Q 195.2,672.7 196.1,673.1 Q 199.2,674.3 200.4,674.8 Q 204.2,676.1 205.7,676.6 Q 210.2,678.1 211.8,678.7 Q 217.1,680.4 219.0,680.9 Q 224.9,682.8 227.1,683.4 Q 233.7,685.4 236.1,686.1 Q 243.5,688.2 245.9,688.9 Q 252.8,691.0 255.0,691.7 Q 261.3,693.6 263.3,694.2 Q 268.9,696.1 270.6,696.7 Q 275.6,698.5 277.1,699.0 Q 281.5,700.7 282.8,701.2 Q 286.4,702.7 287.5,703.2 Q 290.5,704.7 291.4,705.1 Q 293.8,706.4 294.5,706.9 Q 297.0,708.4 297.9,709.0 Q 300.6,710.7 301.6,711.4 Q 304.6,713.3 305.6,714.0 Q 308.8,716.2 310.0,717.0 Q 313.5,719.5 314.7,720.4 Q 318.5,723.0 319.8,724.0 Q 323.8,726.9 325.2,727.9 Q 329.4,731.1 330.8,732.1 Q 334.9,735.0 336.3,736.0 Q 340.1,738.6 341.3,739.5 Q 345.0,741.8 346.1,742.6 Q 349.5,744.7 350.6,745.3 Q 353.7,747.2 354.7,747.7 Q 357.5,749.2 358.4,749.7 Q 361.1,751.0 361.9,751.3 Q 364.3,752.3 365.0,752.6 Q 367.3,753.5 368.0,753.8 Q 370.2,754.5 370.9,754.8 Q 373.0,755.5 373.7,755.7 Q 375.7,756.3 376.3,756.5 Q 378.2,757.1 378.8,757.2 Q 380.6,757.7 381.2,757.8 Q 382.9,758.2 383.4,758.3 Q 385.0,758.6 385.6,758.7 Q 387.2,758.9 387.8,759.0 Q 389.6,759.2 390.2,759.2 Q 392.0,759.4 392.6,759.4 Q 394.5,759.5 395.2,759.6 Q 397.2,759.6 397.8,759.6 Q 399.9,759.6 400.6,759.6 Q 402.8,759.6 403.5,759.6 Q 405.8,759.5 406.5,759.4 Q 408.7,759.3 409.4,759.2 Q 411.6,759.1 412.3,759.0 Q 414.3,758.8 415.0,758.7 Q 417.0,758.4 417.7,758.3 Q 419.7,758.0 420.3,757.9 Q 422.2,757.5 422.8,757.4 Q 424.7,757.0 425.3,756.8 Q 427.1,756.3 427.8,756.1 Q 430.1,755.3 431.0,754.9 Q 434.0,753.7 435.2,753.2 Q 438.8,751.5 440.2,750.9 Q 444.5,748.8 446.0,748.0 Q 451.0,745.5 452.8,744.6 Q 458.4,741.6 460.4,740.6 Q 466.7,737.2 468.9,736.0 Q 475.8,732.2 478.2,731.0 Q 485.3,727.4 487.7,726.3 Q 494.9,722.9 497.4,721.9 Q 504.7,718.9 507.2,718.0 Q 514.6,715.2 517.1,714.4 Q 524.7,712.0 527.2,711.2 Q 534.8,709.1 537.4,708.4 Q 545.2,706.6 547.8,706.0 Q 555.6,704.5 558.1,704.0 Q 565.4,702.6 567.7,702.1 Q 574.2,700.8 576.2,700.4 Q 582.0,699.2 583.8,698.8 Q 588.9,697.6 590.4,697.3 Q 594.8,696.2 596.1,695.9 Q 599.7,694.9 600.8,694.6 Q 603.7,693.8 604.5,693.5 Q 606.7,692.8 607.4,692.5 Q 609.4,691.7 610.1,691.4 Q 612.1,690.6 612.8,690.3 Q 614.8,689.3 615.4,689.0 Q 617.4,688.0 618.1,687.7 Q 620.0,686.7 620.7,686.3 Q 622.6,685.2 623.2,684.8 Q 625.1,683.7 625.7,683.3 Q 627.6,682.1 628.2,681.7 Q 630.1,680.3 630.8,679.9 Q 632.6,678.4 633.2,677.9 Q 635.1,676.3 635.8,675.8 Q 637.6,674.0 638.2,673.4 Q 640.1,671.6 640.8,671.0 Q 642.6,669.0 643.2,668.3 Q 645.1,666.2 645.8,665.5 Q 647.6,663.2 648.3,662.4 Q 650.2,659.6 650.9,658.6 Q 652.9,655.1 653.5,653.9 Q 655.6,649.8 656.3,648.3 Q 658.5,643.7 659.2,642.0 Q 661.4,636.6 662.2,634.7 Q 664.5,628.8 665.2,626.7 Q 667.6,620.1 668.4,617.8 Q 670.8,610.6 671.6,608.2 Q 674.0,601.2 674.8,599.0 Q 677.2,592.4 678.0,590.2 Q 680.4,584.0 681.2,582.0 Q 683.5,576.2 684.3,574.3 Q 686.6,568.9 687.4,567.2 Q 689.7,562.1 690.5,560.5 Q 692.7,555.8 693.5,554.4 Q 695.8,550.1 696.5,548.7 Q 698.8,544.5 699.6,543.1 Q 701.9,539.0 702.7,537.6 Q 705.2,533.5 706.0,532.1 Q 708.5,528.0 709.3,526.7 Q 711.8,522.6 712.7,521.3 Q 715.3,517.3 716.2,515.9 Q 718.8,511.9 719.7,510.6 Q 722.4,506.7 723.3,505.4 Q 725.8,501.5 726.7,500.2 Q 729.0,496.4 729.8,495.1 Q 732.0,491.3 732.7,490.1 Q 734.7,486.4 735.3,485.2 Q 737.1,481.5 737.7,480.3 Q 739.3,476.7 739.8,475.5 Q 741.2,472.0 741.7,470.8 Q 742.9,467.3 743.3,466.2 Q 744.4,462.8 744.7,461.7 Q 745.6,458.5 745.9,457.4 Q 746.7,454.3 746.9,453.3 Q 747.6,450.2 747.8,449.3 Q 748.2,446.4 748.4,445.4 Q 748.7,442.6 748.8,441.7 Q 748.9,439.1 749.0,438.2 Q 749.0,435.7 749.0,434.8 Q 748.9,432.4 748.9,431.6 Q 748.8,429.2 748.8,428.5 Q 748.6,426.2 748.5,425.5 Q 748.3,423.3 748.2,422.6 Q 747.9,420.5 747.8,419.8 Q 747.5,417.8 747.3,417.2 Q 746.9,415.3 746.8,414.7 Q 746.3,412.9 746.1,412.2 Q 745.2,409.7 744.8,408.7 Q 743.5,405.5 742.9,404.2 Q 741.0,400.1 740.3,398.6 Q 737.9,393.7 737.0,391.9 Q 734.2,386.2 733.1,384.1 Q 729.8,377.6 728.6,375.3 Q 724.7,368.0 723.4,365.4 Q 719.0,357.2 717.6,354.5 Q 713.5,346.3 712.2,343.5 Q 708.5,335.3 707.3,332.6 Q 703.9,324.4 702.9,321.7 Q 699.9,313.5 699.0,310.8 Q 696.3,302.7 695.5,300.0 Q 693.2,291.9 692.5,289.2 Q 690.6,281.1 690.1,278.4 Q 688.5,270.3 688.0,267.7 Q 686.5,260.2 685.9,257.8 Q 684.4,250.9 683.9,248.8 Q 682.3,242.5 681.7,240.5 Q 680.1,234.9 679.5,233.2 Q 677.9,228.2 677.3,226.6 Q 675.6,222.3 675.0,220.9 Q 673.3,217.2 672.7,216.1 Q 670.9,213.0 670.3,212.0 Q 668.6,209.2 668.0,208.3 Q 666.3,205.7 665.7,204.9 Q 664.0,202.5 663.5,201.7 Q 661.8,199.5 661.3,198.8 Q 659.7,196.9 659.1,196.3 Q 657.6,194.5 657.1,193.9 Q 655.5,192.4 655.0,191.9 Q 653.5,190.6 653.0,190.1 Q 651.5,188.9 651.0,188.5 Q 649.5,187.3 649.0,186.9 Q 647.5,185.7 647.0,185.4 Q 645.5,184.3 645.0,183.9 Q 643.5,182.9 643.0,182.6 Q 641.5,181.6 641.0,181.3 Q 639.5,180.4 639.0,180.1 Q 637.5,179.2 636.9,178.9 Q 635.1,178.0 634.4,177.7 Q 632.1,176.6 631.2,176.2 Q 628.5,175.1 627.6,174.7 Q 624.4,173.5 623.3,173.0 Q 619.8,171.7 618.5,171.2 Q 614.5,169.7 613.1,169.2 Q 608.7,167.7 607.2,167.1 Q 602.4,165.4 600.8,164.9 Q 596.0,163.2 594.4,162.6 Q 589.8,160.9 588.2,160.3 Q 583.7,158.6 582.2,158.0 Q 577.8,156.3 576.3,155.7 Q 572.0,154.0 570.6,153.4 Q 566.4,151.6 565.1,151.0 Q 561.0,149.3 559.6,148.7 Q 555.7,146.9 554.4,146.3 Q 550.4,144.4 549.1,143.7 Q 545.1,141.6 543.8,140.9 Q 539.9,138.6 538.5,137.8 Q 534.5,135.4 533.2,134.6 Q 529.2,132.0 527.9,131.1 Q 523.9,128.4 522.5,127.4 Q 518.5,124.5 517.2,123.5 Q 513.2,120.5 511.8,119.5 Q 508.0,116.6 506.8,115.6 Q 503.1,113.0 501.9,112.1 Q 498.5,109.7 497.4,108.9 Q 494.2,106.6 493.2,105.9 Q 490.1,103.9 489.2,103.3 Q 486.4,101.5 485.5,101.0 Q 482.9,99.4 482.1,98.9 Q 479.7,97.6 479.0,97.1 Q 476.7,95.9 476.0,95.5 Q 473.8,94.4 473.1,94.0 Q 471.0,93.0 470.3,92.6 Q 468.3,91.7 467.7,91.4 Q 465.8,90.5 465.2,90.3 Q 463.4,89.5 462.8,89.3 Q 461.1,88.6 460.6,88.4 Q 459.0,87.8 458.4,87.6 Q 456.7,87.1 456.1,86.9 Q 454.3,86.4 453.7,86.3 Q 451.7,85.8 451.0,85.7 Q 448.9,85.2 448.2,85.1 Q 446.0,84.7 445.2,84.6 Q 442.9,84.2 442.1,84.1 Q 439.6,83.8 438.7,83.7 Q 436.1,83.4 435.3,83.3 Q 432.7,83.1 431.9,83.0 Q 429.4,82.9 428.5,82.9 Q 426.1,82.8 425.3,82.8 Q 423.0,82.8 422.2,82.8 Q 419.9,82.8 419.2,82.9 Q 417.0,83.0 416.2,83.0 Q 414.1,83.2 412.7,83.4 Z" fill="#d6a25d"/>
  
  <!-- Chocolate chips -->
  <circle cx="370.7" cy="163.4" r="16.1" fill="#512807"/>
  <circle cx="507.2" cy="218.5" r="24.0" fill="#512807"/>
  <circle cx="308.5" cy="251.2" r="33.6" fill="#512807"/>
  <circle cx="642.0" cy="349.2" r="29.0" fill="#512807"/>
  <circle cx="178.7" cy="376.7" r="20.0" fill="#512807"/>
  <circle cx="640.8" cy="556.3" r="16.2" fill="#512807"/>
  <circle cx="271.7" cy="593.3" r="31.7" fill="#512807"/>
  <circle cx="542.5" cy="625.5" r="33.3" fill="#512807"/>

  <!-- Eyes (egg-shaped) -->
  <ellipse cx="275.2" cy="402.4" rx="39.4" ry="42.4" fill="#512807"/>
  <ellipse cx="548.2" cy="409.4" rx="38.9" ry="42.4" fill="#512807"/>

  <!-- Blush -->
  <ellipse cx="226" cy="459" rx="38" ry="18" fill="#e09a90"/>
  <ellipse cx="597" cy="466" rx="38" ry="18" fill="#e09a90"/>
  
  <!-- Mouth (flat top, rounded bottom) -->
  <path d="M 352,412 L 470,412 Q 482,412 482,424 A 71.0,72 0 0 1 340,424 Q 340,412 352,412 Z" fill="#512807"/>
  
  <!-- Tongue (ellipse, inside mouth) -->
  <ellipse cx="411" cy="458" rx="48" ry="24" fill="#d69576"/>
  
  <!-- Eye highlights -->
  <circle cx="257.0" cy="387.4" r="11.0" fill="#fcfcf6"/>
  <circle cx="531.4" cy="394.3" r="10.8" fill="#fcfcf6"/>
</svg>